:SAMPLES-PER-SECOND 30
:FULLY-SPECIFIED
:DEGREES
475
root  -1.72216 39.9376 -1.52075 -83.2726 -87.646 80.2461
RightUpLeg  -4.48811 -7.11429 -9.49363
RightLeg  29.7026 -4.55878 -3.05613
RightFoot  -10.1233 -0.156061 8.54467
RightToes  0.00048216 0.542163 -0.142577
Spine  9.41625 1.59169 -1.01694
Spine1  0.363959 1.66081 -1.71665
HEad  13.0616 0.526113 0.602199
LeftShoulder1  0.428454 -0.610598 -2.17824
LeftArm  -19.4954 16.2751 -6.61125
LeftForeArm  15.0649 -3.46699 -0.126668
LeftHand  -0.25398 0.0180481 5.50724
RightShoulder  0.136222 -2.29528 3.22263
RightArm  -20.6566 -5.26639 0.138894
RightForeArm  -7.79547 2.41065 3.1435
RightHand  -2.55311 7.48796 -23.1273
LeftUpLeg  5.64341 7.23212 -1.31681
LeftLeg  12.6351 12.8289 -1.13685
LeftFoot  -16.4341 0.0139135 -1.90766
LeftToes  1.06244e-005 4.65855e-005 -8.18506e-006
476
root  -1.82289 39.8463 -1.38846 -126.734 -87.3752 123.541
RightUpLeg  -9.79591 -6.53327 -9.01825
RightLeg  38.0468 -5.45259 -4.80767
RightFoot  -5.96602 -0.381391 7.38719
RightToes  0.00048216 0.542163 -0.142577
Spine  10.7673 1.96211 -0.491846
Spine1  0.157261 2.19162 -2.46656
HEad  12.4822 1.01968 0.384131
LeftShoulder1  0.44655 -0.37738 -3.40401
LeftArm  -21.1731 17.2601 -6.66915
LeftForeArm  16.1512 -5.98333 0.259536
LeftHand  -0.25398 0.0180481 5.50724
RightShoulder  0.217237 -1.71942 4.24632
RightArm  -20.9075 -4.85376 0.0561369
RightForeArm  -10.9087 2.96076 3.4064
RightHand  -2.92945 8.36875 -24.7549
LeftUpLeg  5.93284 7.67597 -1.40532
LeftLeg  13.216 14.1458 -0.89719
LeftFoot  -17.4686 -0.00727174 -2.09032
LeftToes  1.06244e-005 4.65855e-005 -8.18506e-006
477
root  -2.02982 39.7831 -1.2794 -151.568 -86.3053 148.487
RightUpLeg  -14.7341 -7.19878 -8.09187
RightLeg  43.6168 -5.09411 -5.45813
RightFoot  -2.89297 -0.41973 5.35582
RightToes  0.00048216 0.542163 -0.142577
Spine  11.4769 2.07068 0.215592
Spine1  0.414654 2.53898 -3.37775
HEad  11.9112 1.63236 0.19983
LeftShoulder1  0.50097 -0.26428 -5.39143
LeftArm  -23.0702 18.4313 -6.69644
LeftForeArm  16.8839 -9.14423 0.516233
LeftHand  -0.25398 0.0180481 5.50724
RightShoulder  0.336021 -0.967842 5.46682
RightArm  -20.8534 -4.82749 0.841814
RightForeArm  -14.2739 3.7572 3.79568
RightHand  -3.43451 9.55708 -26.6567
LeftUpLeg  6.13694 7.88437 -1.40605
LeftLeg  13.5403 15.4277 -0.661199
LeftFoot  -18.308 -0.0386633 -2.4384
LeftToes  1.06244e-005 4.65855e-005 -8.18506e-006
478
root  -2.3447 39.779 -1.17526 -164.758 -85.4288 162.227
RightUpLeg  -18.6797 -8.89074 -6.49196
RightLeg  44.4024 -4.1784 -4.68826
RightFoot  -2.14889 -0.413808 4.95739
RightToes  0.00048216 0.542163 -0.142577
Spine  11.5627 1.87537 1.57298
Spine1  0.783209 2.72612 -4.56394
HEad  11.8738 2.07686 0.184094
LeftShoulder1  0.663436 -0.643975 -8.36594
LeftArm  -24.9613 19.6673 -6.45416
LeftForeArm  17.0024 -12.6289 0.237218
LeftHand  -0.25398 0.0180481 5.50724
RightShoulder  0.48899 -0.153257 6.98355
RightArm  -20.1229 -5.41562 2.29147
RightForeArm  -15.1233 4.81225 4.2187
RightHand  -3.59231 9.91623 -27.1965
LeftUpLeg  6.25975 7.81236 -1.1434
LeftLeg  13.2995 16.6012 -0.554908
LeftFoot  -18.6784 -0.066359 -2.78296
LeftToes  1.06244e-005 4.65855e-005 -8.18506e-006
479
root  -2.72594 39.7935 -1.08504 -175.171 -84.7886 173.358
RightUpLeg  -21.4744 -10.9279 -4.30734
RightLeg  40.5376 -3.79937 -3.74879
RightFoot  -2.5231 -0.4943 6.18284
RightToes  0.00048216 0.542163 -0.142577
Spine  11.8007 1.55009 3.12001
Spine1  0.719496 2.76357 -5.59155
HEad  12.3685 2.40997 0.22568
LeftShoulder1  0.984119 -1.6196 -11.961
LeftArm  -27.4749 21.3246 -6.31955
LeftForeArm  18.2032 -16.303 -0.843508
LeftHand  -0.25398 0.0180481 5.50724
RightShoulder  0.672592 0.625584 8.88596
RightArm  -18.8554 -6.35694 3.91877
RightForeArm  -11.6542 5.95941 4.49498
RightHand  -3.15288 8.90864 -25.5865
LeftUpLeg  6.43466 7.51919 -0.65013
LeftLeg  12.7954 17.7817 -0.539546
LeftFoot  -18.9606 -0.0725208 -2.79757
LeftToes  1.06244e-005 4.65855e-005 -8.18506e-006
480
root  -3.15871 39.7616 -1.03437 178.03 -84.2075 -179.387
RightUpLeg  -23.0778 -12.8225 -2.00775
RightLeg  33.467 -4.48526 -3.40749
RightFoot  -2.68787 -0.553544 7.0619
RightToes  0.00048216 0.542163 -0.142577
Spine  12.6869 1.21994 3.81895
Spine1  0.304932 2.56852 -5.82582
HEad  12.7326 2.91363 0.115016
LeftShoulder1  1.39481 -2.73081 -15.4919
LeftArm  -30.1506 23.3902 -7.08907
LeftForeArm  21.5203 -19.812 -2.32176
LeftHand  -0.25398 0.0180481 5.50724
RightShoulder  0.880879 1.33015 11.048
RightArm  -17.6088 -7.18129 5.64602
RightForeArm  -4.87956 7.00004 4.51587
RightHand  -2.51991 7.52343 -22.7896
LeftUpLeg  6.88321 7.28734 -0.158731
LeftLeg  12.5126 18.6029 -0.576334
LeftFoot  -19.6103 -0.089101 -2.85486
LeftToes  1.06244e-005 4.65855e-005 -8.18506e-006
481
root  -3.67188 39.6837 -1.02794 175.325 -83.9044 -176.448
RightUpLeg  -23.8657 -15.0448 0.174282
RightLeg  24.7719 -4.93548 -2.83418
RightFoot  -2.39043 -0.548557 6.79519
RightToes  0.00048216 0.542163 -0.142577
Spine  13.7561 0.849555 3.50056
Spine1  0.125262 2.09395 -5.13948
HEad  12.4343 3.56436 -0.222205
LeftShoulder1  1.76169 -3.51437 -18.4677
LeftArm  -31.83 25.1442 -9.25711
LeftForeArm  25.8523 -22.4946 -3.33329
LeftHand  -0.25398 0.0180481 5.50724
RightShoulder  1.10001 1.95845 13.1727
RightArm  -16.6511 -7.9389 7.72325
RightForeArm  1.61097 7.87764 4.42792
RightHand  -2.19232 6.97285 -20.7973
LeftUpLeg  7.64211 7.24119 0.160761
LeftLeg  12.3001 18.7037 -0.720428
LeftFoot  -20.3631 -0.13179 -3.21766
LeftToes  1.06244e-005 4.65855e-005 -8.18506e-006
482
root  -4.29424 39.5626 -1.05573 175.837 -84.1231 -176.66
RightUpLeg  -24.3127 -16.3688 1.29756
RightLeg  16.0547 -4.65571 -1.06898
RightFoot  -1.77982 -0.565961 6.60851
RightToes  0.00048216 0.542163 -0.142577
Spine  14.5279 0.444673 2.77674
Spine1  0.270746 1.47588 -4.12337
HEad  11.6634 3.95953 -0.699089
LeftShoulder1  2.06279 -4.05638 -20.8027
LeftArm  -32.4988 26.0449 -12.6625
LeftForeArm  29.4386 -23.9222 -3.58502
LeftHand  -0.25398 0.0180481 5.50724
RightShoulder  1.32423 2.52945 15.162
RightArm  -15.7263 -9.25132 10.0723
RightForeArm  5.05937 8.65348 4.46757
RightHand  -2.17007 7.09195 -20.3923
LeftUpLeg  8.42393 7.21592 0.176775
LeftLeg  12.1565 18.483 -0.81217
LeftFoot  -20.9652 -0.151348 -3.29552
LeftToes  1.06244e-005 4.65855e-005 -8.18506e-006
483
root  -5.02941 39.3792 -1.1098 178.894 -84.6748 -179.537
RightUpLeg  -24.1272 -11.917 -1.06708
RightLeg  9.25555 -7.80618 1.75896
RightFoot  -1.24933 -0.64352 7.18368
RightToes  0.00048216 0.542163 -0.142577
Spine  15.4072 0.105728 2.13779
Spine1  0.323078 0.956441 -3.35688
HEad  10.8658 3.86876 -1.19519
LeftShoulder1  2.39806 -4.71257 -22.8215
LeftArm  -33.4812 26.318 -16.7353
LeftForeArm  31.4846 -24.3004 -3.54992
LeftHand  -0.25398 0.0180481 5.50724
RightShoulder  1.57387 3.08716 17.2638
RightArm  -14.7639 -11.4878 12.348
RightForeArm  5.7081 9.40452 4.62943
RightHand  -2.20094 7.08894 -20.676
LeftUpLeg  9.36303 7.12608 -0.0538242
LeftLeg  12.3128 18.3053 -0.724324
LeftFoot  -21.7487 -0.146952 -3.04599
LeftToes  1.06244e-005 4.65855e-005 -8.18506e-006
484
root  -5.86941 39.1448 -1.19099 -177.535 -85.23 176.557
RightUpLeg  -24.198 -8.24652 -3.03366
RightLeg  5.96286 -8.0696 3.15103
RightFoot  -1.33836 -0.683418 7.68671
RightToes  0.00048216 0.542163 -0.142577
Spine  16.7891 -0.152111 1.80471
Spine1  0.461567 0.583981 -2.83407
HEad  10.0751 3.53295 -1.65484
LeftShoulder1  2.83939 -5.58598 -24.9843
LeftArm  -35.5252 26.3947 -20.929
LeftForeArm  31.9594 -24.202 -3.5052
LeftHand  -0.25398 0.0180481 5.50724
RightShoulder  1.86956 3.65378 19.6849
RightArm  -14.3525 -14.2736 14.6608
RightForeArm  4.99418 10.0958 4.71311
RightHand  -2.17969 6.79496 -20.9519
LeftUpLeg  11.0138 7.19338 -0.0880325
LeftLeg  12.5959 17.6004 -0.663686
LeftFoot  -22.9352 -0.222562 -3.53391
LeftToes  1.06244e-005 4.65855e-005 -8.18506e-006
485
root  -6.82826 38.8981 -1.30794 -178.613 -85.9704 177.024
RightUpLeg  -24.5593 -7.84419 -2.78934
RightLeg  6.7131 -5.29589 2.77194
RightFoot  -1.45099 -0.609155 6.91838
RightToes  0.00048216 0.542163 -0.142577
Spine  18.0126 -0.53928 2.07359
Spine1  1.38413 0.1091 -2.2275
HEad  9.145 3.26525 -2.1249
LeftShoulder1  3.35441 -6.50535 -27.3617
LeftArm  -37.9723 26.4509 -25.0204
LeftForeArm  31.6309 -23.9634 -3.47096
LeftHand  -0.25398 0.0180481 5.50724
RightShoulder  2.18263 4.16893 22.1769
RightArm  -14.8592 -17.0987 17.596
RightForeArm  3.86393 10.6241 4.65133
RightHand  -2.17894 6.62708 -21.222
LeftUpLeg  13.2216 7.69759 0.622053
LeftLeg  12.8166 15.871 -0.588708
LeftFoot  -24.113 -0.382803 -4.71602
LeftToes  1.06244e-005 4.65855e-005 -8.18506e-006
